<svg fill="none" xmlns="http://www.w3.org/2000/svg" xmlns:xlink="http://www.w3.org/1999/xlink" viewBox="0 0 120 120">
  <path fill-rule="evenodd" clip-rule="evenodd" d="M38.6643 52.1111c-2.8414 1.6297-5.6906 11.2486-6.1456 12.8399a4.2352 4.2352 0 0 1-.153.4434L27.1575 78.146a3.945 3.945 0 0 0-.2861 1.227c-.1327 1.9363-.5339 7.9159-.7424 12.4279-.1049 2.2684 1.7593 4.0814 4.0284 3.9922l8.7326-.3433c.2535-.01.5074.0042.7583.0423l6.4873.9862L53 97l6.0132-.2857c.0809-1.1457.5603-2.2624 1.4194-3.1155l1.1559-1.4067 1.2713-.912c.0225-.1693.0473-.328.0709-.4682l-2.2828-2.4583c-1.6579-1.4438-1.9725-3.66-1.2726-5.43l.6681-2.4137 2.6442-3.2274c1.2974-1.8781 3.5957-2.4706 5.5109-1.8831l2.7775.7646.0802-.0617.0231-.0179.0033-.0026.3574-.2791.4108-.192.0557-.026.0783-.0362.9664-2.8779c.4029-1.5422 1.5201-2.7831 2.9839-3.3449L74.71 62.0373a3.999 3.999 0 0 0-.8364-1.8547l-2.8983-3.5782a3.7272 3.7272 0 0 0-.0806-.0962c-.3995-.461-3.5988-4.1391-4.3947-4.6282-1.5001-.9218-4.2118-1.8532-5.2994-2.2082-.3123-.102-.6359-.1587-.9639-.1758l-9.1289-.4754a3.794 3.794 0 0 0-.7875.0395c-1.7515.2753-8.9014 1.4711-11.656 3.051Zm36.599 44.2311-3.163-16.0938-1.6965-.0931-3.346-.9211a1.0035 1.0035 0 0 0-.1607-.042c-.2667-.0463-.5407.019-.7499.1871a.9142.9142 0 0 0-.2235.2648l-2.2506 2.7472-.5232 1.89c-.1441.2446-.1682.5255-.0721.7656.0577.144.1586.2732.3028.3711l3.4531 3.7186.2048 1.528s-.0212.0885-.0515.23c-.0909.4245-.2638 1.3259-.1917 1.7451l-.8908 1.3789-1.5584 1.118-1.004 1.2218a.8227.8227 0 0 0-.1588.1578l.7997-.0379h9.6102l1.6701-.1361Z" fill="#158BF5"/>
  <path d="M64.9088 27.5918a3.9984 3.9984 0 0 1-.0353 1.3105l-1.1014 5.6792a4.0002 4.0002 0 0 1-1.0553 2.023l-2.0971 2.1627a4.0006 4.0006 0 0 1-1.6854 1.0355l-2.1438.6657a4.0106 4.0106 0 0 1-.6331.1415l-1.9743.2757a3.9995 3.9995 0 0 1-1.6171-.1057l-4.3743-1.207a3.9998 3.9998 0 0 1-1.1991-.5576l-.2876-.1974a3.9972 3.9972 0 0 1-.6799-.5891l-1.3887-1.5085-1.3828-1.9639a3.999 3.999 0 0 1-.5432-1.0969l-1.3528-4.2786a3.9994 3.9994 0 0 1-.0409-2.2739l.8336-3.0088a3.9997 3.9997 0 0 1 1.1416-1.8712l1.2928-1.1934a3.9999 3.9999 0 0 1 1.0358-.6922l3.2746-1.5125 3.1667-1.2961a4.0006 4.0006 0 0 1 2.6506-.1335l3.9819 1.1788a3.9997 3.9997 0 0 1 1.5097.835l2.9554 2.6054a3.9999 3.9999 0 0 1 1.317 2.4516l.4324 3.1217Z" fill="#158BF5"/>
  <mask id="b" style="mask-type:alpha" maskUnits="userSpaceOnUse" x="26" y="17" width="50" height="80">
    <path fill-rule="evenodd" clip-rule="evenodd" d="M64.8735 28.9023a3.9984 3.9984 0 0 0 .0353-1.3105l-.4324-3.1217a3.9999 3.9999 0 0 0-1.317-2.4516l-2.9554-2.6054a3.9997 3.9997 0 0 0-1.5097-.835l-3.9819-1.1788a3.9994 3.9994 0 0 0-2.6506.1335l-3.1667 1.2961-3.2746 1.5125a3.9999 3.9999 0 0 0-1.0358.6922l-1.2928 1.1934a3.9997 3.9997 0 0 0-1.1416 1.8712l-.8336 3.0088a3.9994 3.9994 0 0 0 .0409 2.2739l1.3528 4.2785c.1237.3914.3069.7614.5432 1.097l1.3828 1.9638 1.3887 1.5086c.2038.2213.4318.4189.6799.5891l.2876.1974c.366.2511.7713.4396 1.1991.5576l4.3743 1.207a4.0013 4.0013 0 0 0 1.6171.1057l1.9743-.2757c.2145-.03.4262-.0773.6331-.1415l2.1438-.6657a4.0006 4.0006 0 0 0 1.6854-1.0355l2.0971-2.1627a4.0002 4.0002 0 0 0 1.0553-2.023l1.1014-5.6792ZM32.5189 64.951c.455-1.5913 3.3042-11.2102 6.1456-12.8399 2.7546-1.5799 9.9045-2.7757 11.656-3.051a3.794 3.794 0 0 1 .7875-.0395l9.129.4754c.328.0171.6516.0738.9638.1758 1.0876.355 3.7994 1.2863 5.2994 2.2082.7959.4891 3.9952 4.1672 4.3947 4.6281a3.699 3.699 0 0 1 .0806.0963l2.8984 3.5782a4 4 0 0 1 .8364 1.8547l1.225 7.2884c-1.4638.5618-2.5809 1.8027-2.9838 3.3448l-.9665 2.878-.0783.0362-.0557.026-.4108.192-.3573.2791-.0034.0026-.023.0179-.0803.0617-2.7775-.7646c-1.9151-.5875-4.2135.005-5.5109 1.8831l-2.6441 3.2274-.6682 2.4137c-.6998 1.77-.3853 3.9862 1.2727 5.43l2.2828 2.4583a13.407 13.407 0 0 0-.071.4682l-1.2712.912-1.156 1.4067c-.859.8531-1.3384 1.9698-1.4193 3.1155L53.0002 97l-6.8644-.5218-6.4873-.9861a3.999 3.999 0 0 0-.7582-.0423l-8.7327.3432c-2.2691.0892-4.1332-1.7237-4.0284-3.9921.2085-4.512.6097-10.4917.7424-12.4279a3.9479 3.9479 0 0 1 .2861-1.227l5.2083-12.7516c.06-.1469.1093-.2909.1529-.4434Zm39.5817 15.2974 3.1629 16.0938-1.6701.136h-9.6101l-.7998.038a.8365.8365 0 0 1 .1589-.1578l1.004-1.2218 1.5583-1.118.8908-1.3789c-.072-.4192.1008-1.3206.1918-1.7451.0303-.1415.0515-.23.0515-.23l-.2048-1.528-3.4532-3.7186c-.1441-.0979-.2451-.2271-.3027-.3712-.0961-.24-.0721-.5209.0721-.7655l.5231-1.89 2.2507-2.7472a.911.911 0 0 1 .2234-.2648c.2092-.1681.4832-.2334.7499-.1871a.998.998 0 0 1 .1607.042l3.3461.9211 1.6965.0931Z" fill="url(#a)"/>
  </mask>
  <g mask="url(#b)">
    <path opacity=".25" fill="url(#c)" d="M26 17h50v80H26z"/>
  </g>
  <path fill-rule="evenodd" clip-rule="evenodd" d="M94.4103 91.3354s-.1095.7453-.1864 1.3043l1.0838 1.6025 1.5705 1.118.7604.9982c.3652.2609.4613.7267.2307 1.1367l-1.4398 3.2319-1.3532 1.405c-.2307.41-.7112.559-1.1341.41l-2.8973-.921-2.1453-.093c-.2504.188-.7714.764-.7714.764s-1.5099.659-2.3424.988l-.7986 1.248-.2244 1.789-.5664 1.695c-.0576.448-.4421.764-.9034.764l-1.8956.224-2.0192-.224H77.707c-.4613 0-.8265-.316-.9226-.764l-.5472-2.142-.6731-2.684c-.5226-.408-1.1099-.753-1.6903-1.094-.5045-.296-1.0038-.589-1.4507-.918l-3.141.671-2.2435.697c-.4229.131-.9034 0-1.1341-.41l-1.1096-1.182-1.6834-3.4549c-.2114-.3727-.1153-.8758.2306-1.1367l1.0041-1.2218 1.5583-1.118.8908-1.3789c-.0961-.559.2433-1.9751.2433-1.9751l-.2048-1.528-3.4532-3.7186c-.3844-.2609-.4613-.7454-.2307-1.1367l.5232-1.89 2.2506-2.7472c.2307-.4099.7112-.559 1.1341-.4099l3.346.9211 1.6966.0931c.4782-.2595 1.4445-1.0142 1.4445-1.0142s1.0799-.5049 1.6693-.7373l1.5894-4.7329c.0769-.4472.4421-.764.9034-.764l1.8956.2236L83.293 73c.4613 0 .8458.3168.9226.764l.9959 2.1428.5935 2.5901c.3353.1322 1.4258 1.1472 1.4258 1.1472s1.0111.1056 1.6881.6043l3.6965-.6043 1.346-.4099c.4229-.1304.9034 0 1.1341.4099l1.1096.9584 1.6834 3.6788c.2114.3727.1153.8758-.2306 1.1367l-1.0041 1.4454-2.4491 2.2732c.0405.236 0 1.0808 0 1.0808l.2056 1.118Zm-11.3584 4.5163a4.133 4.133 0 0 0 1.2414-.673 4.1484 4.1484 0 0 0 1.5115-2.5203l.1034-.5738a5.0216 5.0216 0 0 0 .0661-1.2561l-.0095-.1294a4.8218 4.8218 0 0 0-1.7152-3.3478 4.8026 4.8026 0 0 0-1.1291-.7038l-.3663-.1629a4.98 4.98 0 0 0-1.3511-.3842l-.2815-.0384a4.373 4.373 0 0 0-1.1565-.0034 4.3849 4.3849 0 0 0-2.7067 1.4325l-.1967.2208a5.016 5.016 0 0 0-.8476 1.3211l-.2121.4835a4.3416 4.3416 0 0 0-.0715 2.1346l.0183.0837.1878.9541a5.002 5.002 0 0 0 .9425 2.0839l.1458.1897.5902.6038a3.4325 3.4325 0 0 0 3.5519.8534l1.6849-.568Z" fill="#AED5F7"/>
  <mask id="e" style="mask-type:alpha" maskUnits="userSpaceOnUse" x="63" y="73" width="35" height="36">
    <path fill-rule="evenodd" clip-rule="evenodd" d="M94.4103 91.3354s-.1095.7453-.1864 1.3043l1.0838 1.6025 1.5705 1.118.7604.9982c.3652.2609.4613.7267.2307 1.1367l-1.4398 3.2319-1.3532 1.405c-.2307.41-.7112.559-1.1341.41l-2.8973-.921-2.1453-.093c-.2504.188-.7714.764-.7714.764s-1.5099.659-2.3424.988l-.7986 1.248-.2244 1.789-.5664 1.695c-.0576.448-.4421.764-.9034.764l-1.8956.224-2.0192-.224H77.707c-.4613 0-.8265-.316-.9226-.764l-.5472-2.142-.6731-2.684c-.5226-.408-1.1099-.753-1.6903-1.094-.5045-.296-1.0038-.589-1.4507-.918l-3.141.671-2.2435.697c-.4229.131-.9034 0-1.1341-.41l-1.1096-1.182-1.6834-3.4549c-.2114-.3727-.1153-.8758.2306-1.1367l1.0041-1.2218 1.5583-1.118.8908-1.3789c-.0961-.559.2433-1.9751.2433-1.9751l-.2048-1.528-3.4532-3.7186c-.3844-.2609-.4613-.7454-.2307-1.1367l.5232-1.89 2.2506-2.7472c.2307-.4099.7112-.559 1.1341-.4099l3.346.9211 1.6966.0931c.4782-.2595 1.4445-1.0142 1.4445-1.0142s1.0799-.5049 1.6693-.7373l1.5894-4.7329c.0769-.4472.4421-.764.9034-.764l1.8956.2236L83.293 73c.4613 0 .8458.3168.9226.764l.9959 2.1428.5935 2.5901c.3353.1322 1.4258 1.1472 1.4258 1.1472s1.0111.1056 1.6881.6043l3.6965-.6043 1.346-.4099c.4229-.1304.9034 0 1.1341.4099l1.1096.9584 1.6834 3.6788c.2114.3727.1153.8758-.2306 1.1367l-1.0041 1.4454-2.4491 2.2732c.0405.236 0 1.0808 0 1.0808l.2056 1.118Zm-11.3584 4.5163a4.133 4.133 0 0 0 1.2414-.673 4.1484 4.1484 0 0 0 1.5115-2.5203l.1034-.5738a5.0216 5.0216 0 0 0 .0661-1.2561l-.0095-.1294a4.8218 4.8218 0 0 0-1.7152-3.3478 4.8026 4.8026 0 0 0-1.1291-.7038l-.3663-.1629a4.98 4.98 0 0 0-1.3511-.3842l-.2815-.0384a4.373 4.373 0 0 0-1.1565-.0034 4.3849 4.3849 0 0 0-2.7067 1.4325l-.1967.2208a5.016 5.016 0 0 0-.8476 1.3211l-.2121.4835a4.3416 4.3416 0 0 0-.0715 2.1346l.0183.0837.1878.9541a5.002 5.002 0 0 0 .9425 2.0839l.1458.1897.5902.6038a3.4325 3.4325 0 0 0 3.5519.8534l1.6849-.568Z" fill="url(#d)"/>
  </mask>
  <g mask="url(#e)">
    <path opacity=".15" fill="url(#f)" d="M63 73h35v36H63z"/>
  </g>
  <defs>
    <linearGradient id="a" x1="26.125" y1="17.1497" x2="96.4292" y2="44.6971" gradientUnits="userSpaceOnUse">
      <stop/>
      <stop offset="1" stop-opacity="0"/>
    </linearGradient>
    <linearGradient id="d" x1="63" y1="72.9616" x2="104.53" y2="98.2964" gradientUnits="userSpaceOnUse">
      <stop/>
      <stop offset="1" stop-opacity="0"/>
    </linearGradient>
    <pattern id="c" patternContentUnits="objectBoundingBox" width="4.4" height="2.75">
      <use xlink:href="#g" transform="scale(.02 .0125)"/>
    </pattern>
    <pattern id="f" patternContentUnits="objectBoundingBox" width="6.2857" height="6.1111">
      <use xlink:href="#g" transform="scale(.02857 .02778)"/>
    </pattern>
  </defs>
</svg>
