<svg fill="none" xmlns="http://www.w3.org/2000/svg" viewBox="0 0 82 56">
  <path d="M18.582 41.19H8.455l-1.463 4.483H2.281l7.806-23.35h6.69l7.927 23.35h-4.627l-1.495-4.482Zm-1.03-3.266-4.06-12.163-3.989 12.163h8.048ZM48.52 22.323v23.35h-7.55l-6.706-12.812c-.333-.64-.853-1.757-1.564-3.354l-.757-1.676-.74-1.676h-.17l.067 1.54.053 1.522.033 3.063v13.395h-4.454V22.323h7.55l6.103 11.838a145.447 145.447 0 0 1 1.876 3.814l.893 1.9.894 1.915h.156l-.053-1.506-.051-1.505-.033-3.01V22.322h4.453Zm4.127 23.35v-23.35h11.537c2.705 0 4.548.43 5.53 1.291.978.861 1.47 2.483 1.47 4.867 0 2.886-1.153 4.584-3.457 5.098v.086c2.683.41 4.023 2.264 4.023 5.56 0 2.383-.515 4.054-1.548 5.012-1.03.958-2.83 1.437-5.398 1.437H52.648ZM57.1 32.124h5.452c1.766 0 2.89-.194 3.378-.58.488-.389.732-1.284.732-2.688 0-1.87-1.067-2.805-3.199-2.805h-6.363v6.073Zm0 9.82h4.884l1.564-.034c1.503 0 2.491-.21 2.968-.633.474-.421.713-1.31.713-2.668 0-1.414-.25-2.304-.748-2.669-.499-.364-1.727-.546-3.688-.546h-5.692v6.55Zm22.337-19.621v23.35h-4.453v-23.35h4.453ZM32.128.43c.163.824.991 4.738 1.212 5.514a2.54 2.54 0 0 0-.377-.031c-.148 0-.262.016-.369.031-.056-.57-.278-1.734-.368-2.139a27.913 27.913 0 0 0-1.09-.023c-.36 0-.721.016-1.081.023-.296.428-1.025 1.625-1.287 2.14-.075-.016-.148-.032-.262-.032-.092 0-.189.016-.313.031.949-1.34 1.88-2.693 2.794-4.056.41-.61.697-1.007.985-1.458h.156Zm-.417.966h-.027l-1.425 2.1c.633.03 1.267.03 1.9 0l-.448-2.1Zm3.04 4.548a1.721 1.721 0 0 0-.664 0c.532-1.91 1.115-4.77 1.287-5.926.09.015.172.031.311.031.123 0 .262-.016.378-.03-.123.419-1.1 4.57-1.312 5.925Zm2.214-1.442c-.13-.055-.59-.246-.59-.887 0-.745.623-1.498 1.794-1.498.27 0 .385.032.623.095.148.04.246.04.419.04.196 0 .597-.024.81-.032 0 .047-.016.104-.016.167 0 .063.017.12.017.167a36.62 36.62 0 0 0-.78-.04c.09.111.23.294.23.65 0 .443-.237.998-.787 1.291-.384.207-.844.222-1.106.222-.18 0-.352-.008-.475-.015-.09.055-.336.19-.336.435 0 .317.343.325.605.325.927.008 1.222.008 1.525.182.303.175.36.492.36.69 0 .61-.54 1.719-2.113 1.719-.386 0-.762-.064-1.033-.277a.98.98 0 0 1-.378-.753c0-.372.23-.72.542-.911a2.12 2.12 0 0 1 .427-.198l.007-.056c-.123-.031-.45-.127-.45-.458 0-.492.458-.69.705-.801v-.057Zm.27 3.272c.984 0 1.467-.673 1.467-1.236 0-.617-.672-.641-1.115-.641-.214 0-.614.016-.9.198a.98.98 0 0 0-.46.848c0 .594.483.831 1.008.831Zm.524-3.327c.795 0 1.09-.864 1.09-1.348 0-.46-.279-.752-.721-.752-.828 0-1.122.848-1.122 1.307 0 .602.409.793.753.793Zm5.42 1.22c-.408.23-.868.35-1.336.349-.706 0-1.632-.373-1.632-1.633 0-1.243.853-2.257 2.106-2.257.778 0 1.468.34 1.468 1.298 0 .294-.058.508-.092.643-.605-.032-.835-.04-1.81-.04-.311 0-.739.008-.992.016a2.67 2.67 0 0 0-.04.46c0 1.03.729 1.228 1.188 1.228a2.01 2.01 0 0 0 1.221-.42h.024l-.106.356Zm-2.23-1.94c.336.023.779.03 1.115.03.319 0 .786 0 1.09-.03.024-.095.048-.223.048-.429 0-.705-.459-.942-.885-.942-.442-.001-1.122.277-1.368 1.37Zm4.566-.943h.016c.187-.19.607-.635 1.345-.635.786 0 .932.49 1.007.769.254-.31.68-.769 1.433-.769.714 0 1.066.444 1.066.84 0 .166-.057.435-.123.737l-.312 1.442c-.098.451-.114.65-.131.776a1.863 1.863 0 0 0-.319-.032c-.124 0-.247.016-.353.032.139-.388.64-2.306.64-2.726 0-.444-.312-.698-.746-.698-.419 0-.976.254-1.172.903-.132.428-.428 1.91-.524 2.52a2.037 2.037 0 0 0-.312-.032c-.123 0-.246.016-.352.032.18-.547.623-2.306.623-2.789 0-.467-.401-.634-.729-.634-.182 0-.885.056-1.172.919-.132.396-.451 2.02-.51 2.504a1.942 1.942 0 0 0-.328-.032c-.114 0-.238.016-.327.032.271-.912.706-2.877.82-3.755.065.015.188.03.287.03.114 0 .23-.015.335-.03l-.163.596Zm8.59 2.883c-.407.23-.866.35-1.334.349-.707 0-1.632-.373-1.632-1.633 0-1.243.852-2.257 2.105-2.257.779 0 1.468.34 1.468 1.298 0 .294-.058.508-.091.643-.606-.032-.836-.04-1.811-.04-.311 0-.737.008-.991.016-.017.103-.042.253-.042.46 0 1.03.73 1.228 1.189 1.228.63 0 1.032-.286 1.22-.42h.025l-.106.356Zm-2.228-1.94c.335.023.778.03 1.114.03.32 0 .787 0 1.09-.03.024-.095.048-.223.048-.429 0-.705-.459-.942-.885-.942-.442-.001-1.121.277-1.367 1.37Zm6.327 1.94c-.407.23-.868.35-1.336.349-.705 0-1.631-.373-1.631-1.633 0-1.243.852-2.257 2.106-2.257.778 0 1.468.34 1.468 1.298 0 .294-.06.508-.091.643-.606-.032-.837-.04-1.811-.04-.313 0-.737.008-.992.016-.017.103-.042.253-.042.46 0 1.03.73 1.228 1.19 1.228.63 0 1.031-.286 1.22-.42h.024l-.105.356Zm-2.229-1.94c.371.021.743.032 1.115.03.319 0 .786 0 1.09-.03.024-.095.048-.223.048-.429 0-.705-.459-.942-.885-.942-.442-.001-1.122.277-1.368 1.37Zm4.6-.951.033.015c.228-.277.729-.642 1.352-.642.58 0 1.147.317 1.147.951 0 .206-.018.286-.189.998-.09.373-.337 1.514-.369 1.846a1.833 1.833 0 0 0-.312-.031c-.122 0-.262.016-.36.031.124-.356.614-2.171.614-2.717 0-.476-.4-.705-.81-.705-.27 0-.941.126-1.188.848-.189.547-.525 2.321-.566 2.575-.1-.02-.202-.03-.304-.031-.113 0-.236.016-.327.031.222-.73.72-3.114.828-3.755.082.015.18.03.295.03.099 0 .214-.015.312-.03l-.156.586Zm7.13-2.33c.475.824 2.73 3.993 3.132 4.445.137-.499.687-3.05.842-4.374.074.015.189.031.288.031.105 0 .164-.016.246-.031-.303 1.014-1.148 4.778-1.238 5.514h-.114c-.255-.435-2.794-4.001-3.13-4.413-.238.934-.804 3.596-.86 4.326a1.443 1.443 0 0 0-.28-.032c-.09 0-.205.016-.286.032.377-1.086 1.18-4.794 1.302-5.5h.099v.002Zm7.608 4.96-.033-.032c-.262.302-.721.658-1.394.658-.54 0-1.147-.325-1.147-.912 0-.198.107-.61.254-1.252.066-.277.247-1.108.321-1.679.099.016.222.031.36.031.133 0 .246-.015.353-.03-.22.791-.64 2.265-.64 2.7 0 .492.295.761.796.761.63 0 1.056-.436 1.22-.919.205-.594.516-2.4.541-2.543.115.016.222.031.327.031.124 0 .237-.015.337-.03-.165.522-.721 2.795-.828 3.754-.1-.015-.19-.031-.296-.031a1.86 1.86 0 0 0-.318.031l.147-.539Zm3.46-4.208c-.107.365-.19.73-.271 1.094.255 0 .566-.024.852-.031a1.129 1.129 0 0 0-.048.324c-.287-.008-.624-.031-.87-.031l-.32 1.49c-.073.34-.187.855-.187 1.108 0 .42.342.579.58.579a1.1 1.1 0 0 0 .542-.159l-.016.206c-.222.167-.565.246-.837.246-.425 0-.876-.254-.876-.745 0-.206.058-.443.114-.705.237-1.086.279-1.204.443-2.02-.156 0-.36.007-.54.014a.75.75 0 0 0 .048-.308c.173.007.386.031.525.031l.148-.84.712-.253Zm-64.968 10.72c.95.087 1.23.658 1.23 1.07 0 .578-.385 1.205-1.057 1.53-.541.262-1.172.285-1.476.285-.163 0-.884-.031-1.032-.031-.156 0-.262.016-.369.03a66.014 66.014 0 0 0 1.187-5.426c.116.008.296.032.435.032.311 0 .688-.032 1.065-.032.451 0 .763.056 1.008.182.378.198.509.555.509.817 0 .792-.82 1.37-1.483 1.489l-.017.055Zm-.433.152a4.27 4.27 0 0 0-.566-.033c-.147 0-.32 0-.458.008-.181.81-.345 1.624-.492 2.44.205.04.402.04.525.04.27 0 .696-.024 1.05-.166.506-.206.925-.785.925-1.363-.002-.563-.444-.856-.984-.927Zm.286-2.433c-.245 0-.5.007-.745.032a52.983 52.983 0 0 0-.5 2.1c.122.015.245.023.426.023.287 0 .778-.024 1.147-.238.451-.261.655-.713.655-1.102 0-.585-.425-.815-.983-.815Zm5.214 4.888a2.71 2.71 0 0 1-1.337.35c-.704 0-1.63-.373-1.63-1.633 0-1.244.853-2.258 2.107-2.258.778 0 1.467.34 1.467 1.3 0 .292-.058.506-.091.64a27.17 27.17 0 0 0-1.811-.039c-.31 0-.737.008-.991.016-.027.151-.04.305-.041.459 0 1.03.728 1.229 1.187 1.229.631 0 1.034-.286 1.222-.42h.026l-.108.356Zm-2.23-1.94c.336.023.779.03 1.114.03.32 0 .788 0 1.092-.03.024-.096.048-.223.048-.429 0-.705-.459-.943-.885-.943-.441 0-1.122.278-1.37 1.371Zm5.64-1.61c1.296 0 1.745.745 1.745 1.546 0 1.164-.91 2.36-2.319 2.36-1.352 0-1.713-.91-1.713-1.592 0-1.133.87-2.313 2.287-2.313Zm-.598 3.654c1.237 0 1.697-1.466 1.697-2.25 0-.658-.386-1.15-1.092-1.15-1.187 0-1.646 1.371-1.646 2.25 0 .666.304 1.15 1.041 1.15Zm3.731-1.268c-.131-.056-.59-.246-.59-.888 0-.744.622-1.496 1.794-1.496.27 0 .386.03.624.094.147.04.245.04.417.04.197 0 .597-.024.811-.032 0 .047-.017.102-.017.167 0 .062.017.118.017.166-.26-.017-.519-.03-.779-.04.09.11.23.293.23.65 0 .443-.237.998-.786 1.29-.386.207-.844.222-1.107.222-.18 0-.352-.007-.475-.015-.09.055-.335.19-.335.436 0 .317.343.325.605.325.927.008 1.223.008 1.524.182.304.175.362.492.362.69 0 .61-.542 1.719-2.115 1.719-.384 0-.762-.063-1.032-.278a.979.979 0 0 1-.378-.753c0-.371.23-.72.541-.91.181-.112.337-.167.428-.2l.008-.055c-.124-.031-.451-.127-.451-.459 0-.491.459-.689.705-.8v-.055Zm.27 3.272c.983 0 1.466-.674 1.466-1.236 0-.617-.671-.642-1.114-.642-.214 0-.615.017-.9.199a.984.984 0 0 0-.46.848c0 .593.484.831 1.008.831Zm.524-3.328c.796 0 1.09-.864 1.09-1.347 0-.46-.28-.753-.721-.753-.828 0-1.123.848-1.123 1.308.001.602.41.792.754.792Zm5.419 1.22a2.71 2.71 0 0 1-1.336.35c-.705 0-1.63-.373-1.63-1.633 0-1.244.851-2.258 2.105-2.258.779 0 1.468.34 1.468 1.3 0 .292-.058.506-.09.64-.607-.03-.838-.039-1.812-.039-.312 0-.737.008-.992.016-.027.151-.04.305-.04.459 0 1.03.73 1.229 1.188 1.229.63 0 1.032-.286 1.222-.42h.024l-.107.356Zm-2.229-1.94c.371.021.743.032 1.115.03.319 0 .786 0 1.09-.03.024-.096.049-.223.049-.429 0-.705-.46-.943-.886-.943-.443 0-1.122.278-1.368 1.371Zm4.599-.952.032.016c.23-.277.73-.642 1.352-.642.582 0 1.147.317 1.147.95 0 .207-.017.287-.188 1-.092.372-.336 1.513-.369 1.845a1.868 1.868 0 0 0-.312-.031c-.121 0-.261.016-.36.031.122-.356.614-2.17.614-2.717 0-.476-.402-.706-.81-.706-.271 0-.943.127-1.189.848-.188.547-.524 2.322-.565 2.575-.1-.02-.202-.03-.303-.032-.11.002-.22.012-.328.032.221-.729.72-3.115.828-3.755.082.016.18.03.295.03.097 0 .212-.014.31-.03l-.154.586Zm6.327 2.464c-.27.333-.656.809-1.458.809-.992 0-1.475-.73-1.475-1.546 0-.998.697-2.369 2.139-2.369.876 0 1.122.53 1.237.785h.033c.196-.998.427-2.037.565-2.9.09.015.206.031.327.031.123 0 .23-.016.32-.031-.475 1.878-.647 2.75-1 4.42-.105.5-.198 1.002-.278 1.506-.074-.016-.139-.032-.28-.032-.138 0-.22.016-.31.032l.18-.705Zm-1.286.5c1.237 0 1.59-1.553 1.59-2.243 0-.317-.108-1.078-1-1.078-1.278 0-1.581 1.521-1.581 2.131 0 .77.36 1.19.99 1.19Zm5.95-.072a2.7 2.7 0 0 1-1.335.35c-.705 0-1.63-.373-1.63-1.633 0-1.244.852-2.258 2.106-2.258.778 0 1.466.34 1.466 1.3 0 .292-.056.506-.09.64a27.2 27.2 0 0 0-1.81-.039c-.311 0-.738.008-.991.016-.027.151-.041.305-.041.459 0 1.03.728 1.229 1.188 1.229.63 0 1.032-.286 1.22-.42h.025l-.108.356Zm-2.229-1.94c.337.023.779.03 1.115.03.32 0 .786 0 1.09-.03.025-.096.049-.223.049-.429 0-.705-.459-.943-.884-.943-.443 0-1.123.278-1.37 1.371Zm6.92-3.21c.116.02.234.03.352.032.132 0 .27-.016.377-.032a65.97 65.97 0 0 0-1.196 5.427c-.12-.02-.24-.03-.362-.031-.122 0-.261.016-.368.031.418-1.529.96-4.032 1.197-5.427Zm2.238 2.258.032.016c.23-.277.73-.642 1.352-.642.583 0 1.148.317 1.148.95 0 .207-.017.287-.19 1-.09.372-.335 1.513-.369 1.845a1.83 1.83 0 0 0-.31-.031c-.124 0-.263.016-.362.031.123-.356.616-2.17.616-2.717 0-.476-.402-.706-.812-.706-.27 0-.942.127-1.187.848-.19.547-.525 2.322-.565 2.575a1.665 1.665 0 0 0-.304-.032c-.114 0-.237.016-.327.032.221-.729.72-3.115.827-3.755.082.016.18.03.295.03.099 0 .213-.014.312-.03l-.156.586Zm5.655.048c-.08-.293-.36-.467-.67-.467a.77.77 0 0 0-.78.752c0 .388.336.54.704.698.346.15.74.324.74.84 0 .729-.74 1.386-1.69 1.386-.336 0-.598-.064-.885-.23.104-.168.192-.345.262-.53h.059c.121.317.449.475.81.475.622 0 .893-.468.893-.817 0-.348-.22-.451-.655-.65-.352-.158-.747-.34-.747-.911 0-.539.402-1.276 1.5-1.276.295 0 .484.047.747.159-.166.357-.19.467-.213.57h-.075Zm2.518-1.625c-.107.365-.19.73-.271 1.094.254 0 .565-.024.851-.031a1.13 1.13 0 0 0-.048.325c-.287-.009-.622-.031-.868-.031l-.32 1.488c-.075.342-.19.856-.19 1.11 0 .42.345.578.583.578.188 0 .377-.063.54-.158l-.015.206c-.221.166-.566.245-.837.245-.425 0-.876-.253-.876-.745 0-.205.057-.443.113-.705.239-1.085.28-1.204.444-2.02-.156 0-.36.008-.541.015a.76.76 0 0 0 .049-.309c.172.008.385.031.524.031l.147-.84.715-.253Zm3.729 4.47c-.407.229-.867.35-1.336.348-.705 0-1.63-.372-1.63-1.632 0-1.244.852-2.258 2.106-2.258.779 0 1.466.34 1.466 1.3 0 .292-.057.506-.09.64a27.21 27.21 0 0 0-1.81-.039c-.314 0-.738.008-.994.016-.014.103-.04.253-.04.459 0 1.03.73 1.229 1.189 1.229.63 0 1.031-.286 1.22-.42h.025l-.106.356Zm-2.229-1.942c.371.022.743.033 1.114.032.321 0 .787 0 1.09-.032.025-.095.05-.222.05-.428 0-.705-.46-.943-.885-.943-.444 0-1.124.278-1.369 1.371Zm3.975 2.218a1.749 1.749 0 0 0-.664 0c.535-1.91 1.115-4.769 1.287-5.926.09.015.172.031.312.031.123 0 .261-.016.378-.031-.125.42-1.1 4.572-1.313 5.926Zm1.977 0a1.749 1.749 0 0 0-.664 0c.533-1.91 1.114-4.769 1.286-5.926.09.015.172.031.31.031.125 0 .265-.016.38-.031-.124.42-1.1 4.572-1.312 5.926Zm2 0a3.17 3.17 0 0 0-.378-.031c-.13 0-.237.016-.32.031.36-1.124.803-3.454.845-3.755.121.016.228.032.344.032.122 0 .237-.016.336-.032-.156.523-.72 2.813-.828 3.755Zm.77-5.387c.222 0 .392.174.392.38a.383.383 0 0 1-.392.38.39.39 0 0 1-.393-.38c0-.206.171-.38.392-.38Zm1.805 2.218.031.016c.23-.277.73-.642 1.352-.642.582 0 1.147.317 1.147.95 0 .207-.016.287-.188 1-.091.372-.336 1.513-.369 1.845a1.862 1.862 0 0 0-.311-.031c-.124 0-.263.016-.362.031.124-.356.616-2.17.616-2.717 0-.476-.402-.706-.812-.706-.27 0-.942.127-1.186.848-.19.547-.525 2.322-.566 2.575a1.665 1.665 0 0 0-.304-.032c-.114 0-.237.016-.327.032.222-.729.72-3.115.828-3.755.082.016.18.03.295.03.098 0 .212-.014.311-.03l-.155.586Zm4.17 1.728c-.13-.056-.59-.246-.59-.888 0-.744.624-1.496 1.796-1.496.27 0 .384.03.622.094.148.04.246.04.417.04.198 0 .6-.024.81-.032 0 .047-.014.102-.014.167 0 .062.015.118.015.166a33.64 33.64 0 0 0-.778-.04c.09.11.229.293.229.65 0 .443-.237.998-.786 1.29-.385.207-.843.222-1.106.222-.181 0-.354-.007-.475-.015-.091.055-.337.19-.337.436 0 .317.345.325.607.325.927.008 1.22.008 1.524.182.303.175.36.492.36.69 0 .61-.54 1.719-2.113 1.719-.386 0-.762-.063-1.034-.278a.977.977 0 0 1-.376-.753c0-.371.228-.72.54-.91.18-.112.335-.167.426-.2l.008-.055c-.123-.031-.45-.127-.45-.459 0-.491.459-.689.704-.8v-.055h.001Zm.272 3.272c.982 0 1.466-.674 1.466-1.236 0-.617-.672-.642-1.115-.642-.212 0-.615.017-.901.199a.986.986 0 0 0-.46.848c0 .593.486.831 1.01.831Zm.524-3.328c.795 0 1.09-.864 1.09-1.347 0-.46-.279-.753-.721-.753-.828 0-1.124.848-1.124 1.308 0 .602.41.792.755.792ZM1.703 55.996a1.5 1.5 0 0 1-1.054-.436A1.485 1.485 0 0 1 .21 54.51v-.275c0-.817.672-1.484 1.493-1.484H80.32c.822 0 1.493.667 1.493 1.484v.276c0 .816-.671 1.484-1.493 1.484H1.703Z" fill="#fff"/>
</svg>
