<svg fill="none" xmlns="http://www.w3.org/2000/svg" viewBox="0 0 37 68"><path fill-rule="evenodd" clip-rule="evenodd" d="M2.97.818c.093.227.164.315.153.389-.777 4.882-.527 9.792-.294 14.691.193 4.047.913 8.008 2.489 11.782.676 1.619 1.274 3.27 1.917 4.902 2.04 5.182 4.837 9.932 8.217 14.344 2.51 3.276 5.187 6.415 8.147 9.288 2.072 2.01 4.294 3.869 6.466 5.775.217.19.542.458.907-.025-.143-.268-.278-.59-.472-.871-.746-1.084-1.529-2.144-2.264-3.235-.646-.958-.669-1.285-.294-1.63.403-.37 1.07.111 1.614.885 2.067 2.94 3.988 5.991 6.376 8.698.216.244.3.605.427.875-.914 1.093-1.07 1.145-1.974.714a4.691 4.691 0 0 1-.234-.12c-2.473-1.354-5.076-2.376-7.785-3.153-1.006-.288-1.971-.73-2.935-1.15-.193-.084-.34-.363-.426-.584-.079-.206.477-.618.78-.562a30.62 30.62 0 0 1 2.047.44c.753.194 1.495.432 2.26.655.02-.184.063-.289.03-.327-.336-.39-.652-.806-1.035-1.146a85.595 85.595 0 0 1-10.132-10.668c-3.456-4.327-6.533-8.916-9.316-13.7-.749-1.287-1.456-2.62-1.988-4.005a188.155 188.155 0 0 1-3.08-8.676C1.167 20.134.385 15.74.137 11.252-.038 8.077.258 4.944.896 1.84c.1-.49.142-1.059.845-1.398l1.23.375Z" fill="#19E3B1"/></svg>