<svg fill="none" xmlns="http://www.w3.org/2000/svg" viewBox="0 0 78 64"><path fill-rule="evenodd" clip-rule="evenodd" d="M2.086 55.249c-.272-.176-.807-.206-1.077-.051-.276.158-.6.708-.514.947.767 2.15 1.585 4.285 2.467 6.39.306.729 1.52.889 2.108.332 2.35-2.23 4.678-4.485 7.01-6.735a.652.652 0 0 0 .196-.344c.034-.25.1-.551-.004-.748-.07-.134-.49-.245-.613-.161-.666.454-1.308.948-1.919 1.474-.805.694-1.573 1.43-2.879 2.627-.025-2.746.695-4.506 1.353-6.25 2.09-5.552 5.992-9.598 10.984-12.579 2.544-1.52 5.3-2.7 8.225-3.36 3.552-.805 7.102-1.63 10.676-2.327 3.842-.75 7.721-1.31 11.566-2.046 6.805-1.3 12.749-4.403 17.871-9.019 4.964-4.473 8.259-9.973 9.412-16.621.251-1.446.178-2.953.181-4.432.001-.371-.226-.78-.45-1.1-.12-.17-.467-.276-.692-.248-.232.028-.543.205-.635.402-.16.347-.257.762-.245 1.144.335 10.73-7.593 20.808-15.895 25.155-3.002 1.571-6.18 2.716-9.532 3.315-3.19.569-6.393 1.07-9.57 1.7-4.104.814-8.215 1.615-12.271 2.625-4.354 1.084-8.377 2.947-12.07 5.571-5.015 3.565-8.645 8.093-10.448 14.033-.264.872-.28 1.89-1.28 2.608-.944-.483-1.094-1.747-1.955-2.302Z" fill="#19E3B1"/></svg>