<svg fill="none" xmlns="http://www.w3.org/2000/svg" xmlns:xlink="http://www.w3.org/1999/xlink" viewBox="0 0 62 76">
  <path d="m61.6914 15.1268-.3182-6.7914c-.1025-2.1891-1.9476-3.8882-4.1378-3.8102l-8.6285.307-5.5358-.4477-12.0781.8952-15.0975-.4476-10.065-.4476h-.8607c-2.2752 0-4.0922 1.895-3.9965 4.1682l.3237 7.6931.2496 5.9307.2372 5.6361c.0082.1961.002.3925-.0186.5877l-.92 8.7236a4.0001 4.0001 0 0 0 .0064.8957l.895 7.466c.033.2749.0373.5525.0129.8283l-.4625 5.2319-.9902 12.2271.329 8.1931c.0893 2.2218 1.9734 3.9444 4.1943 3.8346l5.0263-.2483 9.3102.4476 9.3102-.4476 9.0585.4476 11.0715-.8952 8.0033.5694c2.4203.1722 4.4353-1.8327 4.2752-4.2539l-.7037-10.6386 1.0066-7.6091-.5033-12.9803.5033-14.7707.5032-10.2947Z" fill="#158BF5"/>
  <mask id="b" style="mask-type:alpha" maskUnits="userSpaceOnUse" x="0" y="0" width="62" height="76">
    <path fill-rule="evenodd" clip-rule="evenodd" d="M32.9478.4547 30.9991 0l-2.1788.9094-.7443 1.8188v2.465l-7.3101-.2166V2.7282L19.7915.4547 17.8428 0 15.664.9094l-.7443 1.8188v2.0606l-9.0914-.4043h-.8607c-2.2751 0-4.092 1.895-3.9964 4.1682l.3237 7.6931.2496 5.9307.2371 5.6361c.0083.1961.002.3925-.0185.5877l-.92 8.7236a4.0001 4.0001 0 0 0 .0063.8957l.895 7.4659c.033.275.0373.5526.013.8284l-.4625 5.2319-.9902 12.2271.329 8.1931c.0893 2.2218 1.9734 3.9444 4.1942 3.8346l5.0264-.2483 9.3102.4476 9.3101-.4476 9.0586.4476 11.0715-.8952 8.0033.5694c2.4203.1722 4.4353-1.8327 4.2751-4.2539l-.7036-10.6386 1.0065-7.6091-.5032-12.9803.5032-14.7707.5033-10.2947-.3182-6.7914c-.1026-2.1891-1.9476-3.8882-4.1378-3.8102l-8.6286.307-1.5263-.1235V2.7282L46.104.4547 44.1553 0l-2.1788.9094-.7443 1.8188v1.7924l-7.3101.5419V2.7282L32.9478.4547Z" fill="url(#a)"/>
  </mask>
  <g mask="url(#b)">
    <path opacity=".25" fill="url(#c)" d="M.3047 0h61.3846v76H.3047z"/>
  </g>
  <path fill-rule="evenodd" clip-rule="evenodd" d="m30.9973 0 1.9487.4547.9744 2.2735v5.0017l-.4872 1.3641-.9744.9094-1.4615.4547-1.9487-.9094-.9744-1.8188V2.7282l.7443-1.8188L30.9973 0ZM44.1535 0l1.9488.4547.9743 2.2735v5.0017l-.4872 1.3641-.9743.9094-1.4616.4547-1.9487-.9094-.9743-1.8188V2.7282l.7443-1.8188L44.1535 0ZM17.8449 0l1.9488.4547.9743 2.2735v5.0017l-.4872 1.3641-.9743.9094-1.4616.4547-1.9487-.9094-.9743-1.8188V2.7282l.7443-1.8188L17.8449 0Z" fill="#AED5F7"/>
  <path d="m35.3867 57 7.3077.3654L47.079 57M35.3867 42.3845l7.3077.3654 4.3846-.3654M35.3867 27.769l7.3077.3654 4.3846-.3654M16.3828 56.478l.9744 1.3919 1.9487 1.9488 1.9487-2.2271 1.4615-1.4268 1.4616-2.0879M16.3828 41.8625l.9744 1.392 1.9487 1.9487 1.9487-2.2271 1.4615-1.4268 1.4616-2.0879M16.3828 27.247l.9744 1.392 1.9487 1.9487 1.9487-2.2271 1.4615-1.4267 1.4616-2.088" stroke="#AED5F7" stroke-width="4" stroke-linecap="round" stroke-linejoin="round"/>
  <defs>
    <linearGradient id="a" x1=".3047" y1="0" x2="72.3337" y2="35.2105" gradientUnits="userSpaceOnUse">
      <stop stop-color="#0B8769"/>
      <stop offset="1" stop-color="#0B8769" stop-opacity=".1"/>
    </linearGradient>
    <pattern id="c" patternContentUnits="objectBoundingBox" width="3.584" height="2.8947">
      <use xlink:href="#d" transform="scale(.0163 .01316)"/>
    </pattern>
  </defs>
</svg>
