<svg fill="none" xmlns="http://www.w3.org/2000/svg" viewBox="0 0 108 66"><path d="m64 37.1-.04-1.406a3.591 3.591 0 0 0-3.797-3.482L58.54 32l-3.542.425-4.427-.212L47.62 32c-.809 0-1.459.667-1.438 1.475l.108 4.156.074 2.816.073 2.816-.293 4.493.293 3.953-.147 2.681-.29 5.805.078 3.141a2.522 2.522 0 0 0 2.722 2.451l2.73.213 2.73-.213 2.657.213 3.246-.425a3.177 3.177 0 0 0 3.538-3.286l-.144-3.514.295-3.612L63.705 49l.147-7.013L64 37.1ZM86 27.75l-.067-3.05a3.505 3.505 0 0 0-3.77-3.419L80.54 21l-3.542.563-4.427-.282L69.62 21c-.81 0-1.463.665-1.447 1.475l.117 5.978.073 3.727.074 3.726-.293 5.948.293 5.232-.147 3.548-.29 7.683.094 5.012a2.449 2.449 0 0 0 2.706 2.39l2.73.281 2.73-.281 2.657.281 3.246-.563a3.107 3.107 0 0 0 3.574-3.167l-.18-5.833.295-4.78-.147-8.157.147-9.281L86 27.75ZM108 14.15l-.088-5.442a3.4 3.4 0 0 0-3.749-3.327L102.54 5l-3.542.763-4.427-.382L91.62 5c-.812 0-1.466.664-1.455 1.476l.125 8.627.073 5.052.074 5.051-.293 8.062.293 7.093-.147 4.81L90 55.585l.107 7.732a2.358 2.358 0 0 0 2.693 2.302l2.73.381 2.73-.381 2.657.381 3.246-.763a2.998 2.998 0 0 0 3.604-3.003l-.21-9.197.295-6.48-.147-11.057.147-12.581.148-8.769Z" fill="#049974"/><path fill-rule="evenodd" clip-rule="evenodd" d="M4.029.162 8.4 0l8.05.312L28 .623 38.15.312l5.95.623 7.294-.382a4 4 0 0 1 4.193 4.352L55.3 8.1l.7 6.854-.35 5.607.35 5.764-.35 5.763.093 1.492a4 4 0 0 1-3.865 4.247L46.439 38l-9.56-.613-4.088-.286a3.994 3.994 0 0 0-.657.008l-5.828.553a3.998 3.998 0 0 1-.71.004l-2.803-.234-1.369 1.819-4.895 4.55-3.241 3.168c-.862.893-2.912 1.681-3.917 1.031-.497-.322-.388-1.168-.278-2.019.047-.363.094-.727.094-1.052v-4.378l.427-3.175-.339.011-6.161.205A3.013 3.013 0 0 1 0 34.581l.35-6.231.35-9.346-.7-7.477L.35 8.1.181 4.339A4 4 0 0 1 4.029.162Z" fill="#19E3B1"/><path d="m17 18.75-.485 2.5-1.212 1.25-1.143.355L13.12 23l-1.94-.535-.404-.278-.565-.614-.58-.823-.632-2L9.485 17l.864-.798 1.283-.592 1.49-.61 2.058.61L16.758 17 17 18.75ZM32 18.75l-.485 2.5-1.212 1.25-1.143.355L28.12 23l-1.94-.535-.404-.278-.565-.614-.58-.823-.632-2 .485-1.75.864-.798 1.283-.592 1.49-.61 2.058.61L31.758 17 32 18.75ZM47 18.75l-.485 2.5-1.212 1.25-1.143.355L43.12 23l-1.94-.535-.404-.278-.565-.614-.58-.823-.632-2 .485-1.75.864-.798 1.283-.592 1.49-.61 2.058.61L46.758 17 47 18.75Z" fill="#049974"/></svg>