<svg fill="none" xmlns="http://www.w3.org/2000/svg" viewBox="0 0 164 48">
  <rect width="38" height="48" rx="2" fill="#001955"/>
  <path d="M29.102 29.64c0-4-3.52-6.12-6.24-6.4 2.96-.52 5.84-2.72 5.84-6.08 0-4.44-3.84-7.24-10.08-7.24-3.68 0-6.56 1.08-8.76 2.84-.56.44-.84 1.08-.84 1.72 0 1.4 1.24 2.4 2.48 2.4.48 0 .96-.12 1.36-.4 1.56-1 3.32-1.52 5.16-1.52 2.8 0 4.96 1.04 4.96 3.16 0 2.2-2.4 3-5.88 2.84-1.56 0-2.6 1.08-2.6 2.48 0 1.8 1.48 2.8 3.56 2.52 3.72 0 5.36.96 5.36 3.08 0 2-1.8 3.4-5.04 3.4-1.84 0-3.96-.64-5.72-1.68-.44-.28-.92-.4-1.4-.4-1.32 0-2.6 1.08-2.6 2.52 0 .4.12.76.32 1.08 1.24 2.08 5.76 3.52 9.6 3.52 6.4 0 10.52-3.24 10.52-7.84Z" fill="#FFFBE6"/>
  <rect x="42" width="38" height="48" rx="2" fill="#001955"/>
  <path d="M66.577 34.44V13.36c0-1.8-1.52-3.24-3.32-3.24-.92 0-1.8.36-2.4.96l-6.16 6.24c-.48.48-.72 1.08-.72 1.68 0 1.32 1.12 2.36 2.36 2.36.56 0 1.12-.2 1.56-.64l3-3.08v16.8c0 1.52 1.28 2.8 2.8 2.8 1.6 0 2.88-1.28 2.88-2.8Z" fill="#FFFBE6"/>
  <rect x="84" width="38" height="48" rx="2" fill="#001955"/>
  <path d="M113.208 34.44c0-1.32-1.12-2.44-2.44-2.44h-8.68c6.92-5.04 10.68-9 10.68-13.56 0-5.32-4.52-8.52-10.2-8.52-3.36 0-7.84 1.44-9.12 3.48-.24.36-.36.76-.36 1.16 0 1.44 1.16 2.56 2.48 2.56.6 0 1.12-.16 1.64-.52 1.52-1.04 3.36-1.64 5.48-1.64 2.2 0 4.32 1.16 4.32 3.48 0 3.12-3.2 6.04-13.16 13.4-.76.56-1.2 1.48-1.2 2.4 0 1.6 1.28 2.76 2.68 2.76h15.44c1.32 0 2.44-1.12 2.44-2.56Z" fill="#FFFBE6"/>
  <g clip-path="url(#a)">
    <rect x="126" width="38" height="48" rx="2" fill="#001955"/>
    <path d="M155.752 5.64c0-7.52-3.4-13.76-11.52-13.76-6.08 0-10.2 3.96-10.2 9.16 0 5.68 4.28 8.68 9.08 8.68 2.92 0 5.6-1.64 6.84-3.44.04.2.04.36.04.56 0 4.24-2.76 7.56-6.68 7.56-1.36 0-2.48-.24-3.48-.76-.36-.2-.76-.28-1.16-.28-1.24 0-2.64.96-2.64 2.48 0 .4.12.76.32 1.12 1 1.72 4.36 2.48 6.96 2.48 7.88 0 12.44-5.72 12.44-13.8Zm-5.8-3.32a6.675 6.675 0 0 1-5.2 2.52c-2.56 0-4.96-1.2-4.96-4 0-1.88 1.68-3.92 4.76-3.92 3.72 0 5.16 2.84 5.4 5.4ZM156.038 45.68c0-6.88-3.44-13.76-11.04-13.76-7.64 0-11.04 6.88-11.04 13.76s3.4 13.8 11.04 13.8c7.6 0 11.04-6.92 11.04-13.8Zm-5.8 0c0 4.92-1.44 8.76-5.24 8.76-3.84 0-5.28-3.84-5.28-8.76s1.44-8.72 5.28-8.72c3.8 0 5.24 3.8 5.24 8.72Z" fill="#FFFBE6"/>
  </g>
  <defs>
    <clipPath id="a">
      <rect x="126" width="38" height="48" rx="2" fill="#fff"/>
    </clipPath>
  </defs>
</svg>