<svg fill="none" xmlns="http://www.w3.org/2000/svg" viewBox="0 0 99 30">
  <path fill-rule="evenodd" clip-rule="evenodd" d="M1.764 9.462c.324.04.462.102.553.06C8.332 6.84 14.737 5.469 21.124 4.08c5.275-1.147 10.621-1.587 16.022-.86 2.316.312 4.647.513 6.97.777 7.373.839 14.45 2.8 21.296 5.629 5.081 2.1 10.044 4.463 14.762 7.282 3.303 1.974 6.46 4.193 9.664 6.33.32.214.775.54.28 1.177-.395-.092-.856-.155-1.285-.307-1.652-.587-3.285-1.229-4.943-1.799-1.457-.5-1.885-.417-2.2.183-.337.647.513 1.34 1.696 1.773 4.497 1.647 9.086 3.066 13.393 5.207.389.193.882.177 1.274.248 1.091-1.554 1.105-1.772.238-2.787a6.232 6.232 0 0 0-.236-.26c-2.595-2.717-4.807-5.714-6.742-8.933-.718-1.195-1.62-2.285-2.492-3.38-.175-.22-.584-.314-.898-.347-.293-.03-.632.827-.455 1.197.4.84.816 1.674 1.273 2.483.51.903 1.07 1.776 1.622 2.684-.23.088-.35.18-.411.15-.618-.298-1.263-.561-1.832-.937a114.055 114.055 0 0 0-17.224-9.361C64.136 7.273 57.168 4.895 50.05 2.962c-1.913-.52-3.872-.97-5.84-1.177A250.72 250.72 0 0 0 31.983.813c-5.98-.335-11.904.174-17.767 1.404-4.146.87-8.076 2.33-11.85 4.222-.596.299-1.313.547-1.508 1.569l.907 1.454Z" fill="#001955"/>
</svg>
