<svg fill="none" xmlns="http://www.w3.org/2000/svg" viewBox="0 0 99 88"><path d="m42 8.5 1-5L45.5 1l2.358-.71L50 0l4 1.07.834.555L56 2.853 57.196 4.5l1.304 4-1 3.5-1.783 1.596-2.645 1.185L50 16l-4.247-1.22L42.5 12 42 8.5ZM60.162 25.431a5.104 5.104 0 0 0-.408-.82c-.699-1.17-.862-1.962-1.923-2.092-.219-.027-.44-.037-.658-.073L51.5 21.5l-4.814.5h-3.314c-2.592 0-3.252 1.63-3.668 2.763-.085.231-.15.47-.195.712L37.5 36.5l-1.687 5.553L34 46l-1.5 4.5L31 55l-.95 3.995c-.258 1.161.52 2.271 1.63 2.427.176.024.354.042.526.089L34 62l7.163-.56L42.396 65l-.5 6 .683 5.071c.042.308.119.61.23.9l.587 1.529 1 1 2.104.5 2.5-.5 4 .5 1.574-.394c.283-.07.558-.172.819-.302L57 78.5l.652-1.32c.279-.564.42-1.186.413-1.816L58 69.5l.5-4.34.293-3.72L62.5 62l4.552-.56c1.25 0 2.176-1.193 1.898-2.445L66.5 50.5 65 42l-2-9-2.838-7.569Z" fill="#049974"/><mask id="b" style="mask-type:alpha" maskUnits="userSpaceOnUse" x="30" y="0" width="39" height="80"><path fill-rule="evenodd" clip-rule="evenodd" d="m43 3.5-1 5 .5 3.5 3.253 2.78L50 16l3.072-1.22 2.645-1.184L57.5 12l1-3.5-1.304-4L56 2.853l-1.166-1.228L54 1.07 50 0l-2.142.29L45.5 1 43 3.5Zm16.754 21.11c.157.263.3.535.408.821L63 33l2 9 1.5 8.5 2.45 8.495c.278 1.252-.648 2.445-1.898 2.445L62.5 62l-3.707-.56-.293 3.72-.5 4.34.065 5.865a3.998 3.998 0 0 1-.413 1.816L57 78.5l-1.607.804c-.261.13-.536.232-.819.302L53 80l-4-.5-2.5.5-2.104-.5-1-1-.587-1.53a4.01 4.01 0 0 1-.23-.899L41.896 71l.5-6-1.233-3.56L34 62l-1.794-.49a3.184 3.184 0 0 0-.422-.075l-.104-.014c-1.11-.155-1.888-1.265-1.63-2.426L31 55l1.5-4.5L34 46l1.813-3.947L37.5 36.5l2.01-11.025c.044-.243.11-.48.194-.712C40.12 23.629 40.78 22 43.372 22h3.314l4.814-.5 5.673.946c.133.022.268.034.402.047.086.008.171.015.256.026.838.102 1.116.618 1.54 1.407.113.21.236.439.383.684Z" fill="url(#a)"/></mask><path d="m89 15.5-1 5-2.5 2.5-2.358.71L81 24l-4-1.07-.835-.555L75 21.147 73.804 19.5l-1.304-4 1-3.5 1.783-1.596 2.645-1.185L81 8l4.247 1.22L88.5 12l.5 3.5ZM70.838 33.431c.108-.286.25-.559.41-.819C72.095 31.252 72.63 30 74 30l5 .5 5.314-.5h3.314c2.592 0 3.252 1.63 3.668 2.763.085.231.15.47.195.712L93.5 44.5l1.687 5.553L96 54.5l1.5 4L98 63l.95 3.995c.258 1.161-.52 2.271-1.63 2.426-.176.025-.354.043-.526.09L95 70l-5.163-.56L88.604 73l.5 6-.683 5.071a4.01 4.01 0 0 1-.23.9l-.587 1.529-1 1-2.104.5-2.5-.5-4 .5-1.574-.394a3.994 3.994 0 0 1-.819-.302L74 86.5l-.652-1.32a3.998 3.998 0 0 1-.413-1.816L73 77.5l-.5-4.34-.293-3.72L68.5 70l-3.398-.536c-.103-.016-.207-.022-.311-.03-1.17-.095-2.008-1.24-1.741-2.439L65.5 58.5 66 50l2-9 2.838-7.569Z" fill="#19E3B1"/><mask id="d" style="mask-type:alpha" maskUnits="userSpaceOnUse" x="63" y="8" width="36" height="80"><path fill-rule="evenodd" clip-rule="evenodd" d="m88 20.5 1-5-.5-3.5-3.253-2.78L81 8l-3.072 1.22-2.645 1.184L73.5 12l-1 3.5 1.304 4L75 21.147l1.165 1.228.835.555L81 24l2.142-.29L85.5 23l2.5-2.5ZM71.249 32.612c-.162.26-.303.533-.41.82L68 41l-2 9-.5 8.5-2.45 8.495c-.267 1.2.571 2.344 1.74 2.439l.06.004c.084.007.169.013.252.026L68.5 70l3.707-.56.293 3.72.5 4.34-.065 5.865c-.007.63.134 1.251.413 1.816L74 86.5l1.607.804c.261.13.536.232.819.302L78 88l4-.5 2.5.5 2.104-.5 1-1 .587-1.53a4.01 4.01 0 0 0 .23-.899L89.104 79l-.5-6 1.233-3.56L95 70l1.794-.49c.138-.037.28-.056.422-.075l.104-.014c1.11-.155 1.888-1.265 1.63-2.426L98 63l-.5-4.5-1.5-4-.813-4.447L93.5 44.5l-2.01-11.025a4.311 4.311 0 0 0-.194-.712C90.88 31.629 90.22 30 87.628 30h-3.314L79 30.5l-5-.5c-1.187 0-1.748.94-2.426 2.074a34.97 34.97 0 0 1-.325.538Z" fill="url(#c)"/></mask><path d="m26 15.5-1 5-2.5 2.5-2.358.71L18 24l-4-1.07-.835-.555L12 21.147 10.804 19.5l-1.304-4 1-3.5 1.783-1.596 2.645-1.185L18 8l4.247 1.22L25.5 12l.5 3.5ZM7.838 33.431c.108-.286.25-.559.41-.819C9.095 31.252 9.63 30 11 30l5 .5 5.314-.5h3.314c2.592 0 3.252 1.63 3.668 2.763.085.231.15.47.195.712L30.5 44.5l1.687 5.553L33 54.5l1.5 4L35 63l.95 3.995c.258 1.161-.52 2.271-1.63 2.426-.176.025-.354.043-.526.09L32 70l-5.163-.56L25.604 73l.5 6-.683 5.071a4.01 4.01 0 0 1-.23.9l-.587 1.529-1 1-2.104.5-2.5-.5-4 .5-1.574-.394a3.994 3.994 0 0 1-.819-.302L11 86.5l-.652-1.32a3.999 3.999 0 0 1-.413-1.816L10 77.5l-.5-4.34-.293-3.72L5.5 70l-3.398-.536c-.103-.016-.207-.022-.311-.03-1.17-.095-2.008-1.24-1.741-2.439L2.5 58.5 3 50l2-9 2.838-7.569Z" fill="#19E3B1"/><mask id="f" style="mask-type:alpha" maskUnits="userSpaceOnUse" x="0" y="8" width="36" height="80"><path fill-rule="evenodd" clip-rule="evenodd" d="m25 20.5 1-5-.5-3.5-3.253-2.78L18 8l-3.072 1.22-2.645 1.184L10.5 12l-1 3.5 1.304 4L12 21.147l1.165 1.228.835.555L18 24l2.142-.29L22.5 23l2.5-2.5ZM8.249 32.612c-.162.26-.303.533-.41.82L5 41l-2 9-.5 8.5-2.45 8.495c-.267 1.2.571 2.344 1.74 2.439l.06.004c.084.007.169.013.252.026L5.5 70l3.707-.56.293 3.72.5 4.34-.065 5.865c-.007.63.134 1.251.413 1.816L11 86.5l1.607.804c.261.13.536.232.819.302L15 88l4-.5 2.5.5 2.104-.5 1-1 .587-1.53a4.01 4.01 0 0 0 .23-.899L26.104 79l-.5-6 1.233-3.56L32 70l1.794-.49c.138-.037.28-.056.422-.075l.104-.014c1.11-.155 1.888-1.265 1.63-2.426L35 63l-.5-4.5-1.5-4-.813-4.447L30.5 44.5l-2.01-11.025a4.311 4.311 0 0 0-.194-.712C27.88 31.629 27.22 30 24.628 30h-3.314L16 30.5l-5-.5c-1.187 0-1.748.94-2.426 2.074-.104.176-.212.356-.325.538Z" fill="url(#e)"/></mask><defs><linearGradient id="a" x1="36.183" y1="0" x2="5.308" y2="48.857" gradientUnits="userSpaceOnUse"><stop stop-color="#0B8769"/><stop offset="1" stop-color="#0B8769" stop-opacity="0"/></linearGradient><linearGradient id="c" x1="63" y1="9" x2="113.964" y2="27.115" gradientUnits="userSpaceOnUse"><stop stop-color="#0B8769"/><stop offset="1" stop-color="#0B8769" stop-opacity="0"/></linearGradient><linearGradient id="e" x1="0" y1="8" x2="48.723" y2="21.27" gradientUnits="userSpaceOnUse"><stop stop-color="#0B8769"/><stop offset="1" stop-color="#0B8769" stop-opacity="0"/></linearGradient></defs></svg>