<svg fill="none" xmlns="http://www.w3.org/2000/svg" viewBox="0 0 670 670">
    <path fill-rule="evenodd" clip-rule="evenodd" d="M4 0a4 4 0 0 0-4 4v259.381c0 3.563 4.309 5.348 6.828 2.828L266.21 6.829c2.52-2.52.735-6.829-2.828-6.829H4Zm662 670a4 4 0 0 0 4-4V406.619c0-3.563-4.309-5.348-6.828-2.828L403.791 663.172c-2.52 2.519-.735 6.828 2.828 6.828H666Zm-540.754-1.172a4 4 0 0 1-2.829 1.172H4a4 4 0 0 1-4-4V547.583c0-1.061.421-2.078 1.172-2.829L544.754 1.172A4 4 0 0 1 547.583 0H666a4 4 0 0 1 4 4v118.417a4 4 0 0 1-1.172 2.829L125.246 668.828Z" fill="#FC636B"/>
</svg>
