<svg fill="none" xmlns="http://www.w3.org/2000/svg" viewBox="0 0 16 16">
  <path d="M7 4v0a5 5 0 0 0-5 5v0a5 5 0 0 0 5 5v0a5 5 0 0 0 5-5v0" stroke="currentColor" stroke-width="2" stroke-linecap="round" stroke-linejoin="round"/>
  <path d="M6.293 8.293a1 1 0 0 0 1.414 1.414L6.293 8.293Zm7.414-4.586a1 1 0 0 0-1.414-1.414l1.414 1.414Zm-6 6 6-6-1.414-1.414-6 6 1.414 1.414Z" fill="currentColor"/>
  <path d="M10 2h4v4" stroke="currentColor" stroke-width="2" stroke-linecap="round" stroke-linejoin="round"/>
</svg>
