<svg fill="none" xmlns="http://www.w3.org/2000/svg" viewBox="0 0 85 56">
  <path d="M3.98 55.593c-1.99 0-3.582-1.6-3.582-3.6V4.007c0-2 1.592-3.599 3.581-3.599h77.042c1.99 0 3.581 1.6 3.581 3.6v47.987c0 2-1.592 3.599-3.581 3.599H3.979Z" fill="#F5F5F5"/>
  <path d="M81.02.807c1.752 0 3.184 1.44 3.184 3.2v47.987c0 1.76-1.432 3.2-3.183 3.2H3.979c-1.75 0-3.183-1.44-3.183-3.2V4.006c0-1.76 1.432-3.199 3.183-3.199h77.042Zm0-.8H3.98c-2.23 0-3.98 1.76-3.98 4v47.987c0 2.24 1.75 3.999 3.98 3.999h77.04c2.23 0 3.98-1.76 3.98-4V4.007A4 4 0 0 0 81.02.007Z" fill="#ECECEC"/>
  <path d="M62.158 26v-4.878h-1.591v6.638h4.695v-1.12h-3.104V26Zm5.412.64v-1.76h3.025v-1.119H67.57v-1.52h3.263v-1.12H65.98v6.64h4.934v-1.12H67.57Zm-38.998-4.398h2.15v5.518h1.511v-5.518h2.15v-1.12h-5.81v1.12Zm-1.99-1.12h-1.91L22.762 26l-.716 1.84h1.512l.557-1.44h2.865l.558 1.44h1.591L28.413 26l-1.83-4.88Zm-1.034 1.28 1.035 2.879h-2.07l1.035-2.88ZM19.977 26v.32l-.24-.32-2.546-4.88h-2.308v6.64h1.433v-5.52l1.99 3.76.875 1.76h2.228v-6.64h-1.432v4.88Zm37.326-4.88h-1.83l-1.91 4.88-.717 1.84h1.513l.477-1.44h2.865l.557 1.44h1.592L59.134 26l-1.83-4.88Zm-.955 1.28 1.035 2.88h-2.07l1.035-2.88Zm-21.25 3.6v1.76h1.592v-6.64h-1.592v4.88Zm15.6 0v.32l-.24-.32-2.546-4.88h-2.308v6.64h1.433v-5.52h.08l1.91 3.76.954 1.76h2.15v-6.64h-1.433v4.88Zm-9.55-5.04c-2.389 0-3.503 1.52-3.503 3.52 0 .56.08 1.04.239 1.52.477 1.2 1.512 1.92 3.184 1.92 1.75 0 2.785-.8 3.183-1.92H42.58c-.24.56-.717.88-1.512.88-.796 0-1.274-.4-1.513-.88-.238-.48-.238-1.04-.238-1.52 0-1.12.318-2.48 1.83-2.48s1.83 1.28 1.83 2.48c0 .56-.079 1.04-.238 1.52h1.671c.16-.48.239-.96.239-1.52-.08-2-1.114-3.52-3.502-3.52Zm-36.213.08h6.685v6.72H4.935v-6.72Zm69.162 0h6.685v6.72h-6.685v-6.72Z" fill="#E40421"/>
  <path d="M16.316 49.194v-4.878h-1.99v6.718h6.049v-1.12h-4.06v-.72Zm41.783 0c-.159-.8-.238-1.36-1.671-1.52 1.194-.16 1.99-.719 1.99-1.599 0-1.36-1.672-1.76-3.264-1.76h-3.979v6.719h1.99v-2.72h2.149c.636 0 .796.48.875.88.08.64.16 1.2.319 1.76h2.228c-.398-.4-.478-1.12-.557-1.6-.08 0-.08-.08-.08-.16Zm-3.263-1.999h-1.671v-1.76h1.671c.876 0 1.433.24 1.433.88 0 .56-.557.88-1.433.88Zm-10.585 2v-1.04h3.98v-1.12h-3.98v-1.6h4.298v-1.12h-6.367v6.719h6.526v-1.12H44.25v-.72Zm16.475 0v1.839h2.069v-6.718h-2.07v4.878Zm8.118-4.88v4.4c0 .16 0 .24-.08.4-.08.48-.318.88-1.114.88s-1.035-.48-1.114-.88h-1.99c.239 1.2.955 1.919 3.104 1.919 1.592 0 2.865-.56 3.104-1.92v-4.878h-1.91v.08Zm-42.182-.16c-3.104 0-4.537 1.52-4.537 3.52 0 .56.08 1.04.319 1.52.557 1.2 1.91 1.999 4.218 1.999 2.228 0 3.581-.8 4.218-1.92h-2.149c-.318.56-.955.88-1.99.88-1.114 0-1.67-.4-1.99-.88-.238-.48-.318-1.04-.318-1.52 0-1.119.398-2.478 2.388-2.478 1.99 0 2.388 1.28 2.388 2.479 0 .56-.08 1.04-.319 1.52h2.15c.238-.48.318-.96.318-1.52-.24-2.08-1.592-3.6-4.696-3.6Zm6.128 1.28h2.786v5.599h1.99v-5.599h2.865v-1.12h-7.64v1.12Z" fill="#0069B4"/>
  <path d="M64.546 48.875c0 .08 0 .24.08.32h1.99v-.32h-2.07Zm9.55-4.56h6.686v6.72h-6.685v-6.72Zm-69.241 0h6.685v6.72H4.855v-6.72Z" fill="#0069B4"/>
  <path d="M7.481 41.756v-3.999h1.592c2.149 0 3.582-.88 3.582-3.599 0-2.719-1.433-3.599-3.582-3.599H5.014v11.117h2.467v.08Zm0-6.158v-2.8h1.274c.955.08 1.353.64 1.353 1.44 0 .8-.398 1.36-1.353 1.44H7.48v-.08Zm13.45.64c0 1.68-.318 3.599-1.989 3.599s-1.99-1.92-1.99-3.6c0-1.759.319-3.678 1.99-3.678 1.592 0 1.99 1.92 1.99 3.679Zm-2.069 5.758c2.945 0 4.617-2.16 4.617-5.758 0-3.68-1.672-5.759-4.616-5.759-2.945 0-4.617 2.16-4.617 5.759.08 3.599 1.672 5.758 4.617 5.758Zm13.69-8.158C32.71 31.2 30.8 30.32 28.97 30.32c-1.83 0-3.66.72-3.82 3.36 0 1.2.478 2.239 1.353 2.719 1.91 1.04 3.74.72 3.74 2.24 0 .719-.716 1.119-1.273 1.119-.875 0-1.512-.56-1.512-1.6h-2.467c0 3.04 1.83 3.76 3.9 3.76 2.069 0 3.9-1.12 3.9-3.44 0-3.039-2.15-3.199-3.662-3.679-.557-.16-1.353-.4-1.353-1.28 0-.56.478-1.04 1.035-1.04.398 0 .716.16.955.32.239.24.318.56.318.96h2.468v.08Zm3.581 7.918H38.6V32.8h2.786v-2.16h-7.959v2.16h2.706v8.957Zm14.326-7.678c0-2.799-2.07-3.759-4.218-3.759-2.786 0-4.218 2.08-4.218 5.759 0 3.759 1.512 5.838 4.218 5.838 2.149 0 4.297-.96 4.218-3.759h-2.547c-.08 1.04-.637 1.6-1.671 1.6-1.353 0-1.672-1.92-1.672-3.52 0-1.679.24-3.758 1.672-3.758 1.034 0 1.592.56 1.671 1.6h2.547Zm12.256-3.439v11.117h3.741c3.025 0 5.014-1.44 5.014-5.518 0-4.08-1.99-5.519-5.014-5.519h-3.74v-.08Zm2.468 2.16h1.114c1.353 0 2.626 1.12 2.626 3.439 0 2.32-1.273 3.439-2.626 3.439h-1.114v-6.878Zm15.36 8.957v-2.16h-4.297v-2.318h3.979v-2.16h-3.98v-2.32h4.298V30.64h-6.765v11.117h6.765ZM58.26 36.158c0 1.68-.319 3.599-1.99 3.599-1.672 0-1.99-1.92-1.99-3.6 0-1.759.318-3.678 1.99-3.678 1.671 0 1.99 2 1.99 3.679Zm-1.99 5.758c2.945 0 4.616-2.16 4.616-5.758 0-3.68-1.671-5.759-4.616-5.759-2.945 0-4.616 2.16-4.616 5.759 0 3.679 1.671 5.758 4.616 5.758Z" fill="#23A638"/>
  <path d="M3.98 7.845s8.038-2.719 16.793-2.08c8.754.64 19.18 3.04 23.08 2.88 3.9-.16 4.377-.24 4.536-.8v6.959s.08.8-3.979.8-18.942-2.72-23.24-2.88c-4.297-.16-11.222-.24-17.27 1.92l6.048-4.72L3.98 7.846Z" fill="url(#a)"/>
  <path d="M48.39 14.883v-3.039l-4.776-3.759-6.287 1.44-.876 2.239s-.477.96 4.218 1.36c4.935.48 7.402.96 7.72 1.76Z" fill="url(#b)"/>
  <path d="M81.02 12.004s-8.038 2.72-16.793 2.08c-8.754-.64-19.18-3.04-23.08-2.88-3.9.16-4.377.24-4.537.8V5.046s-.08-.8 3.98-.8c4.059 0 18.942 2.72 23.24 2.88 4.297.16 11.221.24 17.27-1.92l-6.049 4.719 5.97 2.08Z" fill="url(#c)"/>
  <defs>
    <linearGradient id="a" x1="48.389" y1="10.636" x2="3.968" y2="10.636" gradientUnits="userSpaceOnUse">
      <stop stop-color="#FCD19A"/>
      <stop offset=".237" stop-color="#F39200"/>
      <stop offset=".86" stop-color="#FDD5A5"/>
      <stop offset=".884" stop-color="#FBC887"/>
      <stop offset=".916" stop-color="#F9B966"/>
      <stop offset=".947" stop-color="#F8AF4E"/>
      <stop offset=".976" stop-color="#F7A840"/>
      <stop offset="1" stop-color="#F7A63B"/>
    </linearGradient>
    <linearGradient id="b" x1="36.556" y1="11.484" x2="48.422" y2="11.484" gradientUnits="userSpaceOnUse">
      <stop stop-color="#AE6914"/>
      <stop offset=".86" stop-color="#EB8D02"/>
      <stop offset=".871" stop-color="#ED9513"/>
      <stop offset=".899" stop-color="#F2A73E"/>
      <stop offset=".927" stop-color="#F6B65F"/>
      <stop offset=".954" stop-color="#F9C077"/>
      <stop offset=".979" stop-color="#FAC785"/>
      <stop offset="1" stop-color="#FBC98A"/>
    </linearGradient>
    <linearGradient id="c" x1="36.61" y1="9.214" x2="81.032" y2="9.214" gradientUnits="userSpaceOnUse">
      <stop stop-color="#FCD19A"/>
      <stop offset=".237" stop-color="#F39200"/>
      <stop offset=".86" stop-color="#FDD5A5"/>
      <stop offset=".884" stop-color="#FBC887"/>
      <stop offset=".916" stop-color="#F9B966"/>
      <stop offset=".947" stop-color="#F8AF4E"/>
      <stop offset=".976" stop-color="#F7A840"/>
      <stop offset="1" stop-color="#F7A63B"/>
    </linearGradient>
  </defs>
</svg>
