<svg fill="none" xmlns="http://www.w3.org/2000/svg" viewBox="0 0 79 92"><path d="m30.333 8.625-1.167 5.75-2.916 2.875-2.751.817-2.5.333-4.666-1.23-.973-.64L14 15.12l-1.395-1.894-1.522-4.6L12.25 4.6l2.08-1.835 3.086-1.363L21 0l4.955 1.402L29.75 4.6l.583 4.025ZM9.168 29.185a4.58 4.58 0 0 1 .42-.823c1.006-1.586 1.627-3.061 3.245-3.061l5.834.575 6.2-.575h3.866c3.061 0 3.812 1.92 4.297 3.226.087.234.154.474.2.72l2.353 12.729 1.969 6.385.948 5.115 1.75 4.6.583 5.175 1.109 4.594c.304 1.352-.629 2.643-1.95 2.797-.175.02-.35.038-.52.084l-2.139.575-6.023-.644-1.439 4.094.584 6.9-.806 5.895a4.003 4.003 0 0 1-.236.91l-.708 1.82-1.167 1.15-2.455.575-2.916-.575L17.5 92l-1.912-.471a3.99 3.99 0 0 1-.81-.296l-1.945-.958-.82-1.637a4 4 0 0 1-.424-1.838l.078-6.875-.584-4.99-.341-4.28-4.325.645-3.992-.62c-.102-.016-.205-.022-.307-.03-1.38-.092-2.373-1.417-2.06-2.806l2.859-9.77.583-9.774 2.333-10.35 3.335-8.766Z" fill="#19E3B1"/><mask id="b" style="mask-type:alpha" maskUnits="userSpaceOnUse" x="0" y="0" width="42" height="93"><path fill-rule="evenodd" clip-rule="evenodd" d="m29.166 14.375 1.167-5.75L29.75 4.6l-3.795-3.198L21 0l-3.584 1.402-3.086 1.363L12.25 4.6l-1.167 4.025 1.522 4.6L14 15.119l1.36 1.412.973.638L21 18.4l2.499-.333 2.75-.817 2.917-2.875ZM9.588 28.362a4.58 4.58 0 0 0-.42.823L5.833 37.95 3.5 48.3l-.583 9.775-2.86 9.77c-.312 1.388.682 2.713 2.06 2.806l.022.001c.095.006.191.013.286.028l3.992.62 4.325-.644.341 4.279.584 4.99-.078 6.875a4 4 0 0 0 .424 1.838l.82 1.637 1.944.958c.259.128.531.227.811.296L17.5 92l4.667-.574 2.916.575 2.455-.575 1.167-1.15.708-1.82c.114-.293.193-.598.236-.91l.806-5.895-.584-6.9 1.44-4.094 6.022.644 2.14-.576a3.28 3.28 0 0 1 .48-.079l.038-.004c1.322-.154 2.255-1.445 1.951-2.797l-1.109-4.594-.583-5.175-1.75-4.6-.948-5.115-1.969-6.385-2.353-12.73a4.336 4.336 0 0 0-.2-.72c-.485-1.305-1.236-3.225-4.297-3.225h-3.867l-6.2.575-5.833-.575c-1.385 0-2.039 1.08-2.83 2.385-.133.22-.27.447-.415.676Z" fill="url(#a)"/></mask><path d="M75.688 21.568c.758-2.828-.978-4.594-3.52-5.276l-7.35-1.247L58.8 12.71l-5.576-1.494-4.072-1.091c-2.543-.682-5.218 1.058-5.975 3.886l-.92 4.818-1.824 5.42-3.363 10.073-2.449 11.617-2.857 8.185.414 4.252 5.65 2.862 9.114 3.164 6.584 1.236 5.809 2.085 2.826-1.04 1.897-4.192 2.25-9.783 4.428-15.14 2.614-7.278 2.337-8.723Z" fill="#049974"/><path d="m46.304 42.364-.674 1.113-1.04.368-.874-.05-.771-.132-1.336-.635-.257-.212-.33-.407-.314-.51-.199-1.088.578-.751.73-.218 1.005-.037 1.158-.005 1.413.694.962.977-.05.893ZM54.998 44.692l-.675 1.113-1.04.368-.874-.05-.771-.132-1.336-.635-.257-.212-.33-.406-.313-.51-.2-1.09.578-.75.73-.218 1.005-.037 1.158-.005 1.413.694.963.977-.051.893ZM63.691 47.022l-.675 1.113-1.04.368-.873-.05-.772-.132-1.335-.634-.258-.213-.33-.406-.313-.51-.2-1.09.578-.75.73-.218 1.006-.037 1.158-.005 1.413.694.962.977-.05.893ZM44.493 49.125l-.675 1.114-1.04.368-.874-.05-.77-.132-1.337-.635-.257-.213-.33-.406-.313-.51-.2-1.089.578-.75.73-.218 1.005-.038 1.158-.005 1.413.694.963.978-.051.892ZM53.186 51.453l-.674 1.114-1.04.368-.874-.05-.772-.132-1.335-.635-.258-.212-.33-.407-.313-.51-.2-1.088.578-.752.73-.217 1.006-.037 1.158-.006 1.413.694.962.978-.05.892ZM61.88 53.783l-.675 1.114-1.04.368-.874-.05-.771-.132-1.336-.635-.257-.212-.33-.407-.314-.51-.199-1.089.578-.75.73-.218 1.005-.037 1.158-.006 1.413.695.963.977-.051.892ZM70.041 23.323c.605-2.258-.59-3.617-2.384-4.098l-4.98-.783a1.995 1.995 0 0 1-.438-.121l-4.018-1.624-3.936-1.055-2.875-.77c-1.794-.48-3.74.96-4.344 3.217l-.767 3.838-1.423 4.337-2.628 8.058a1.842 1.842 0 0 0 1.302 2.255l18.95 5.078a2 2 0 0 0 2.439-1.376l1.206-4.166 2.03-5.825 1.866-6.965Z" fill="#19E3B1"/><path fill-rule="evenodd" clip-rule="evenodd" d="m71.114 7.73 1.802 1 .319 2.673-1.424 5.313-3.674 2.121-2.121-3.674 1.423-5.313 1.256-1.734 2.419-.387Z" fill="#049974"/><path d="M53.398 29.052c-.064.767.002 1.438.268 2.046.907 2.08 2.549 3.033 4.627 3.276.246.028.504-.03.756-.041.295-.013.545.092.617.415.073.333-.141.55-.388.701-.485.298-1.021.327-1.53.237-2.062-.363-3.784-1.33-4.926-3.248-.585-.983-.812-2.096-.756-3.273.018-.378-.093-.51-.406-.568a5.375 5.375 0 0 1-.815-.236 1.34 1.34 0 0 1-.407-.23c-.175-.148-.253-.38-.122-.585a.826.826 0 0 1 .448-.305c.14-.04.308.024.46.06.33.082.66.175 1.03.275l.484-1.805c-.25-.067-.537-.13-.815-.223a3.13 3.13 0 0 1-.646-.282.474.474 0 0 1-.227-.276.55.55 0 0 1 .015-.377c.1-.295.316-.392.573-.34.446.089.886.208 1.33.31.121.028.246.04.392.063l.428-.62a4.688 4.688 0 0 1 1.937-1.666c1.653-.738 3.321-.977 4.986-.287.358.147.682.392 1.003.62a.87.87 0 0 1 .319.415.7.7 0 0 1-.053.505c-.038.065-.273.01-.417-.002a.299.299 0 0 1-.123-.069c-1.925-1.334-3.854-.914-5.77.26-.406.249-.715.633-.962 1.143.16.043.29.08.422.112.933.221 1.868.437 2.8.665.227.06.45.138.665.235.114.038.208.12.266.232a.548.548 0 0 1 .045.37c-.05.279-.208.504-.47.516a3.355 3.355 0 0 1-.975-.09c-1.005-.258-2.002-.55-3.002-.825-.104-.028-.214-.037-.387-.066l-.453 1.691c.647.174 1.319.372 2 .53.504.118 1.025.168 1.53.282.24.054.504.135.681.297.075.077.134.17.17.275a.829.829 0 0 1 .047.33c-.024.166-.243.387-.408.437-.26.069-.53.072-.787.008-.98-.231-1.95-.497-2.924-.75l-.53-.142Z" fill="#049974" stroke="#049974"/><defs><linearGradient id="a" x1="0" y1="0" x2="56.729" y2="15.674" gradientUnits="userSpaceOnUse"><stop stop-color="#0B8769"/><stop offset="1" stop-color="#0B8769" stop-opacity="0"/></linearGradient></defs></svg>