<svg fill="none" xmlns="http://www.w3.org/2000/svg" viewBox="0 0 120 120">
  <path fill-rule="evenodd" clip-rule="evenodd" d="M36.221 22.556a2 2 0 0 1 2.848.078l2.342 2.51 5.983 3.492 3.265 2.765a2 2 0 0 1-.005 3.057l-3.758 3.16s-3.58 4.492-5.485 6.488c-1.906 1.996-6.482 5.988-6.482 5.988l-3.427 8.277s3.253-.798 5.376-.804c2.123-.005 6.8 1.038 9.02 2.293 2.22 1.255 4.996 4.207 4.996 4.207s4.261 7.661 4.261 12.78c0 3.663-2.688 10.17-2.688 10.17s-4.538 5.806-6.569 7.203C43.305 96.004 36.878 98 33.921 98c-2.956 0-13.73-4.491-13.73-4.491s-7.358-8.983-8.327-11.478C10.7 79.037 10 70.688 10 70.688l2.493-13.608 2.992-10.352 6.094-10.107L36.22 22.556Zm54.845 0a2 2 0 0 1 2.847.078l2.343 2.51 5.983 3.492 3.265 2.765a2 2 0 0 1-.006 3.057l-3.758 3.16s-3.579 4.492-5.484 6.488c-1.906 1.996-6.482 5.988-6.482 5.988l-3.427 8.277s3.253-.798 5.376-.804c2.122-.005 6.8 1.038 9.02 2.293 2.22 1.255 4.996 4.207 4.996 4.207S110 71.728 110 76.847c0 3.663-2.688 10.17-2.688 10.17s-4.538 5.806-6.569 7.203C98.149 96.004 91.723 98 88.766 98c-2.956 0-13.73-4.491-13.73-4.491s-7.359-8.983-8.328-11.478c-1.162-2.994-1.863-11.343-1.863-11.343l2.493-13.608 2.991-10.352 6.094-10.107 14.643-14.065Z" fill="#19E3B1"/>
</svg>