<svg fill="none" xmlns="http://www.w3.org/2000/svg" viewBox="0 0 24 24">
  <path d="M15.75 2h-7.5C4.7988 2 2 4.7988 2 8.25v7.5C2 19.2013 4.7988 22 8.25 22h7.5c3.4513 0 6.25-2.7987 6.25-6.25v-7.5C22 4.7988 19.2013 2 15.75 2Zm4.375 13.75c0 2.4125-1.9625 4.375-4.375 4.375h-7.5c-2.4125 0-4.375-1.9625-4.375-4.375v-7.5c0-2.4125 1.9625-4.375 4.375-4.375h7.5c2.4125 0 4.375 1.9625 4.375 4.375v7.5Z" fill="currentColor"/>
  <path d="M12 7c-2.7613 0-5 2.2387-5 5s2.2387 5 5 5 5-2.2387 5-5-2.2387-5-5-5Zm0 8.125c-1.7225 0-3.125-1.4025-3.125-3.125 0-1.7237 1.4025-3.125 3.125-3.125s3.125 1.4013 3.125 3.125c0 1.7225-1.4025 3.125-3.125 3.125ZM17 8c.5523 0 1-.4477 1-1s-.4477-1-1-1-1 .4477-1 1 .4477 1 1 1Z" fill="currentColor"/>
</svg>
