<svg fill="none" xmlns="http://www.w3.org/2000/svg" viewBox="0 0 24 24">
  <path fill-rule="evenodd" clip-rule="evenodd" d="M12.0882 4h-.1279l-.0485.0001-.3659.0017c-1.5614.0097-6.693.0722-8.1455.4742-.9581.2806-1.698 1.0702-1.9398 2.07a31.0381 31.0381 0 0 0-.46 5.475 31.0374 31.0374 0 0 0 .46 5.5164c.2663.968 1.002 1.7215 1.9399 1.9872 1.5288.4232 7.1344.4702 8.3612.4754h.4766c1.2268-.0052 6.8324-.0522 8.3613-.4754.9581-.2806 1.6981-1.0702 1.9398-2.07a31.0248 31.0248 0 0 0 .46-5.4336 31.0325 31.0325 0 0 0-.46-5.5164c-.2417-.9998-.9817-1.7894-1.9398-2.07-1.4524-.367-6.5841-.4241-8.1455-.433l-.3659-.0015Zm-2.614 5.1494a1 1 0 0 1 .973-.0438l4 2a1 1 0 0 1 0 1.7888l-4 2A1 1 0 0 1 9 14v-4a1 1 0 0 1 .4743-.8506Z" fill="currentColor"/>
</svg>
